<?xml version="1.0" standalone="no"?>
<!DOCTYPE svg PUBLIC "-//W3C//DTD SVG 20010904//EN"
 "http://www.w3.org/TR/2001/REC-SVG-20010904/DTD/svg10.dtd">
<svg version="1.0" xmlns="http://www.w3.org/2000/svg"
 width="512.000000pt" height="512.000000pt" viewBox="0 0 512.000000 512.000000"
 preserveAspectRatio="xMidYMid meet">
<metadata>
Created by potrace 1.11, written by Peter Selinger 2001-2013
</metadata>
<g transform="translate(0.000000,512.000000) scale(0.100000,-0.100000)"
fill="#000000" stroke="none">
<path d="M1089 5115 c-2 -1 -40 -6 -83 -10 -69 -6 -127 -15 -261 -40 -129 -24
-353 -115 -469 -190 -133 -85 -240 -225 -266 -350 -7 -34 -10 -404 -7 -1155 2
-1012 4 -1109 20 -1155 17 -50 64 -151 80 -170 4 -5 18 -24 30 -42 55 -76 139
-154 243 -224 l51 -34 -1 -98 c-1 -82 -4 -100 -18 -108 -9 -5 -23 -15 -30 -22
-7 -7 -67 -57 -133 -111 -66 -54 -137 -114 -159 -134 -118 -108 -101 -289 36
-380 58 -38 161 -41 229 -7 26 14 50 29 54 35 15 25 23 5 22 -52 l-2 -62 -170
-107 c-94 -58 -181 -117 -194 -130 -55 -56 -75 -153 -50 -243 15 -55 91 -128
151 -145 90 -25 139 -13 273 69 66 40 135 82 153 93 l32 19 38 -28 c20 -15 39
-31 42 -35 12 -16 142 -94 215 -128 98 -47 263 -104 317 -111 4 -1 22 -6 40
-11 18 -5 49 -12 68 -15 19 -3 41 -7 48 -9 76 -26 518 -26 633 -1 13 3 38 7
54 10 17 2 67 13 112 25 345 89 612 274 726 503 70 138 70 138 73 688 1 272 3
506 3 520 1 20 13 33 54 56 59 35 911 551 1582 959 143 87 269 163 280 169 71
39 139 91 164 126 57 79 64 185 18 276 -41 81 -113 129 -205 139 -71 7 -123
-12 -240 -86 -56 -35 -117 -73 -136 -84 -31 -18 -185 -113 -254 -157 -15 -10
-41 -25 -58 -35 -17 -10 -255 -157 -530 -326 -274 -170 -508 -314 -518 -320
-11 -7 -51 -31 -88 -54 -37 -24 -68 -42 -69 -40 0 1 -2 133 -3 293 -1 159 -5
295 -9 300 -3 6 17 28 45 50 28 21 56 43 62 49 6 6 43 35 81 65 39 30 81 65
95 77 20 17 668 541 824 666 22 18 93 75 157 127 64 52 226 183 359 290 134
107 248 200 254 205 6 6 54 45 107 87 113 92 149 146 154 236 4 80 -19 144
-72 198 -50 52 -97 74 -170 81 -108 11 -100 16 -734 -509 -24 -20 -177 -145
-339 -279 -372 -306 -450 -369 -475 -391 -11 -9 -90 -74 -175 -143 -85 -70
-166 -137 -180 -149 -14 -11 -50 -41 -80 -66 -30 -25 -57 -47 -60 -50 -5 -5
-158 -129 -175 -141 -6 -4 -29 1 -53 12 l-42 20 -1 532 c0 293 -3 545 -5 560
-18 107 -98 228 -209 316 -65 52 -202 128 -300 168 -90 36 -326 91 -470 108
-55 7 -481 16 -486 10z"/>
</g>
</svg>
